<svg
xmlns="http://www.w3.org/2000/svg"
  id="Layer_1"
  data-name="Layer 1"
  viewBox="0 0 24 24"
  width="512"
  height="512"
  style="fill: #FFFFFF;"
>
<path d="M17.5,24H6.5c-2.481,0-4.5-2.019-4.5-4.5V4.5C2,2.019,4.019,0,6.5,0h11c2.481,0,4.5,2.019,4.5,4.5v15c0,2.481-2.019,4.5-4.5,4.5ZM6.5,1c-1.93,0-3.5,1.57-3.5,3.5v15c0,1.93,1.57,3.5,3.5,3.5h11c1.93,0,3.5-1.57,3.5-3.5V4.5c0-1.93-1.57-3.5-3.5-3.5H6.5Zm11.5,4.5c0-.276-.224-.5-.5-.5h-6c-.276,0-.5,.224-.5,.5s.224,.5,.5,.5h6c.276,0,.5-.224,.5-.5Zm0,6c0-.276-.224-.5-.5-.5h-6c-.276,0-.5,.224-.5,.5s.224,.5,.5,.5h6c.276,0,.5-.224,.5-.5Zm0,6c0-.276-.224-.5-.5-.5h-6c-.276,0-.5,.224-.5,.5s.224,.5,.5,.5h6c.276,0,.5-.224,.5-.5ZM8.5,7h-2c-.276,0-.5-.224-.5-.5v-2c0-.276,.224-.5,.5-.5h2c.276,0,.5,.224,.5,.5v2c0,.276-.224,.5-.5,.5Zm-1.5-1h1v-1h-1v1Zm1.5,7h-2c-.276,0-.5-.224-.5-.5v-2c0-.276,.224-.5,.5-.5h2c.276,0,.5,.224,.5,.5v2c0,.276-.224,.5-.5,.5Zm-1.5-1h1v-1h-1v1Zm1.5,7h-2c-.276,0-.5-.224-.5-.5v-2c0-.276,.224-.5,.5-.5h2c.276,0,.5,.224,.5,.5v2c0,.276-.224,.5-.5,.5Zm-1.5-1h1v-1h-1v1Z"/></svg>
