<svg
xmlns="http://www.w3.org/2000/svg"
  id="Layer_1"
  data-name="Layer 1"
  viewBox="0 0 24 24"
  width="512"
  height="512"
  style="fill: #FD8A8A;"
><path d="m7,14c2.206,0,4-1.794,4-4s-1.794-4-4-4-4,1.794-4,4,1.794,4,4,4Zm0-6c1.103,0,2,.897,2,2s-.897,2-2,2-2-.897-2-2,.897-2,2-2Zm7,11v5h-2v-5c0-.552-.449-1-1-1H3c-.551,0-1,.448-1,1v5H0v-5c0-1.654,1.346-3,3-3h8c1.654,0,3,1.346,3,3ZM24,3v15h-8.101c-.151-.744-.481-1.416-.922-2h.023v-2h5v2h2V3c0-.552-.449-1-1-1h-13c-.551,0-1,.448-1,1v1c-.702,0-1.374.127-2,.349v-1.349c0-.017,0-.035.001-.052.028-1.63,1.362-2.948,2.999-2.948h13c1.654,0,3,1.346,3,3Z"/></svg>
