<svg xmlns="http://www.w3.org/2000/svg" id="Layer_1" data-name="Layer 1"
viewBox="0 0 24 24"
  width="512"
  height="512"
  style="fill: #FFFFFF;">
  <path d="m19,4h-1.101c-.465-2.279-2.485-4-4.899-4H5C2.243,0,0,2.243,0,5v12.854c0,.794.435,1.52,1.134,1.894.318.171.667.255,1.015.255.416,0,.831-.121,1.19-.36l2.95-1.967c.691,1.935,2.541,3.324,4.711,3.324h5.697l3.964,2.644c.359.239.774.36,1.19.36.348,0,.696-.085,1.015-.256.699-.375,1.134-1.101,1.134-1.894v-12.854c0-2.757-2.243-5-5-5ZM2.23,17.979c-.019.012-.074.048-.152.007-.079-.042-.079-.109-.079-.131V5c0-1.654,1.346-3,3-3h8c1.654,0,3,1.346,3,3v7c0,1.654-1.346,3-3,3h-6c-.306,0-.541.159-.565.175l-4.205,2.804Zm19.77,3.876c0,.021,0,.089-.078.131-.08.043-.134.006-.152-.007l-4.215-2.811c-.164-.109-.357-.168-.555-.168h-6c-1.304,0-2.415-.836-2.828-2h4.828c2.757,0,5-2.243,5-5v-6h1c1.654,0,3,1.346,3,3v12.854ZM6,7c0-.889.391-1.727,1.072-2.299.681-.572,1.577-.814,2.463-.653,1.209.211,2.204,1.205,2.417,2.417.223,1.272-.382,2.543-1.506,3.164-.447.246-.447.318-.447.371,0,.553-.448,1-1,1s-1-.447-1-1c0-1.308,1.038-1.879,1.481-2.123.29-.159.595-.535.502-1.066-.069-.392-.402-.725-.793-.793-.306-.056-.602.022-.832.216-.228.19-.358.47-.358.767,0,.553-.448,1-1,1s-1-.447-1-1Zm4,6c0,.552-.448,1-1,1s-1-.448-1-1,.448-1,1-1,1,.448,1,1Z"/></svg>
