  <svg
  xmlns="http://www.w3.org/2000/svg"
  id="Layer_1"
  data-name="Layer 1"
  viewBox="0 0 24 24"
  width="512"
  height="512"
  style="fill: #FFFFFF;"
>
  <path d="m19,1H5C2.243,1,0,3.243,0,6v12c0,2.757,2.243,5,5,5h14c2.757,0,5-2.243,5-5V6c0-2.757-2.243-5-5-5Zm3,17c0,1.654-1.346,3-3,3H5c-1.654,0-3-1.346-3-3V6c0-1.654,1.346-3,3-3h14c1.654,0,3,1.346,3,3v12Zm-3-11c0,.552-.448,1-1,1h-7c-.552,0-1-.448-1-1s.448-1,1-1h7c.552,0,1,.448,1,1Zm-11,0c0,.828-.672,1.5-1.5,1.5s-1.5-.672-1.5-1.5.672-1.5,1.5-1.5,1.5.672,1.5,1.5Zm11,5c0,.552-.448,1-1,1h-7c-.552,0-1-.448-1-1s.448-1,1-1h7c.552,0,1,.448,1,1Zm-11,0c0,.828-.672,1.5-1.5,1.5s-1.5-.672-1.5-1.5.672-1.5,1.5-1.5,1.5.672,1.5,1.5Zm11,5c0,.552-.448,1-1,1h-7c-.552,0-1-.448-1-1s.448-1,1-1h7c.552,0,1,.448,1,1Zm-11,0c0,.828-.672,1.5-1.5,1.5s-1.5-.672-1.5-1.5.672-1.5,1.5-1.5,1.5.672,1.5,1.5Z"/>
</svg>
