<?xml version="1.0" encoding="UTF-8"?>
<svg xmlns="http://www.w3.org/2000/svg" id="Layer_1" 
data-name="Layer 1" viewBox="0 0 24 24"
width="512"
  height="512"
  style="fill: #FFFFFF;">
  <path d="m15.998,4.224c-.136-.719-.789-1.224-1.521-1.224h-.939c-.284,0-.514.23-.514.514v3.972c0,.284.23.514.514.514h.946c.77,0,1.445-.565,1.53-1.33.052-.468-.114-.905-.417-1.146.314-.329.498-.784.401-1.299Zm-1.474,2.776h-.5v-1h.5c.276,0,.5.224.5.5s-.224.5-.5.5Zm0-2h-.5v-1h.5c.276,0,.5.224.5.5s-.224.5-.5.5Zm3.126-.625c-.006.049-.01.17.108.25.013,0,.509.218,1.055.42,1.013.374,1.267,1.107,1.167,1.669-.133.745-.844,1.286-1.691,1.286-.447,0-.877-.118-1.242-.333-.298-.176-.339-.591-.083-.823.166-.15.412-.186.605-.072.21.124.461.193.72.193.371,0,.633-.22.671-.432.051-.286-.374-.466-.506-.515-.623-.23-1.185-.481-1.185-.481-.497-.316-.716-.803-.644-1.309.078-.538.471-.976,1.027-1.144.6-.181,1.129-.018,1.49.171.279.146.346.516.142.756-.141.166-.373.22-.573.134-.199-.086-.475-.155-.761-.07-.243.073-.291.234-.3.299Zm-7.651-.875v2.978c0,.261.191.494.45.52.298.029.55-.205.55-.498v-3c0-.276.224-.5.5-.5s.5.224.5.5v3c0,.852-.714,1.541-1.575,1.498-.806-.04-1.425-.735-1.425-1.542v-2.957c0-.276.224-.5.5-.5s.5.224.5.5Zm-3.04,3.032c.051-.286-.374-.466-.506-.515-.623-.23-1.185-.481-1.185-.481-.497-.316-.716-.803-.644-1.309.078-.538.471-.976,1.027-1.144.6-.181,1.129-.018,1.49.171.279.146.346.516.142.756-.141.166-.373.22-.573.134-.199-.086-.475-.155-.761-.07-.243.073-.291.234-.3.299-.006.049-.01.17.108.25.013,0,.509.218,1.055.42,1.013.374,1.267,1.107,1.167,1.669-.133.745-.844,1.286-1.691,1.286-.447,0-.877-.118-1.242-.333-.298-.176-.339-.591-.083-.823.166-.15.412-.186.605-.072.21.124.461.193.72.193.371,0,.633-.22.671-.432Zm17.04-2.032v2c0,2.481-2.019,4.5-4.5,4.5h-4c-.276,0-.5-.224-.5-.5s.224-.5.5-.5h4c1.93,0,3.5-1.57,3.5-3.5v-2c0-1.93-1.57-3.5-3.5-3.5H4.5c-1.93,0-3.5,1.57-3.5,3.5v2c0,1.93,1.57,3.5,3.5,3.5h1c.276,0,.5.224.5.5s-.224.5-.5.5h-1c-2.481,0-4.5-2.019-4.5-4.5v-2C0,2.019,2.019,0,4.5,0h15c2.481,0,4.5,2.019,4.5,4.5Zm-3,19c0,.276-.224.5-.5.5s-.5-.224-.5-.5c0-1.637-.994-3.026-2.596-3.627l-5.08-1.905c-.195-.073-.324-.26-.324-.468v-4.893c0-.789-.535-1.471-1.245-1.586-.449-.072-.886.046-1.227.336-.336.286-.529.703-.529,1.143v7.424c0,.42-.235.795-.614.978s-.818.133-1.147-.128c0,0-1.715-1.367-1.727-1.379-.606-.554-1.547-.519-2.106.08-.565.604-.534,1.557.064,2.118l1.633,1.551c.325.309.107.856-.342.856-.127,0-.249-.048-.341-.135l-1.64-1.548c-1-.937-1.048-2.518-.106-3.524.934-1.001,2.504-1.058,3.512-.135l1.676,1.335.138-.067v-7.424c0-.734.321-1.429.881-1.905.56-.476,1.303-.677,2.035-.562,1.188.194,2.084,1.3,2.084,2.573v4.546l4.756,1.783c2.001.751,3.244,2.5,3.244,4.563Z"/>
</svg>
